# xmcd
#
# Track frame offsets:
#	180
#	25105
#	54070
#	79415
#	95932
#	130887
#	171917
#	201675
#	229685
#
# Disc length: 3505 seconds
#
# Revision: 1
# Processed by: cddbd v1.5PL3 Copyright (c) Steve Scherf et al.
# Submitted via: audiograbber 1.83.01
#
DISCID=7a0daf09
DTITLE=BluesStage hosted by Ruth Brown - NPR Program Audition
DYEAR=1989
DGENRE=Blues
TTITLE0=Little Milton at The B.K. Lounge Rochester New York
TTITLE1=KoKo Taylor at The Chicago Blues Festival - Hey Bartender
TTITLE2=Koko Taylor at The Chicago Blues Festival - Rather Go Blind
TTITLE3=Johhny Adams at The Texas Roadhouse
TTITLE4=Johnny Adams Texas Roadhouse - Garbage Man
TTITLE5=Denise LaSalle at The Peppermint in New Jersey
TTITLE6=A.C.Reed at J.C. Dobbs in Philadelphia - Dust My Broom
TTITLE7=Little Milton at B.K. Lounge in Rochester, New York
TTITLE8=KoKo Taylor at The Chicage Blues Festival - I'm A Woman
EXTD=
EXTT0=
EXTT1=
EXTT2=
EXTT3=
EXTT4=
EXTT5=
EXTT6=
EXTT7=
EXTT8=
PLAYORDER=
